<svg xmlns="http://www.w3.org/2000/svg" width="640" height="520" viewBox="0 0 640 520" role="img" aria-labelledby="laptop-title laptop-desc">
  <title id="laptop-title">Hand-drawn travel laptop</title>
  <desc id="laptop-desc">An open laptop with a blank screen, traced from a black ink sketch.</desc>
  <path fill="#252923" fill-rule="evenodd" d="M354.5 17.575c-1.918.355-59.602 3.791-83.5 4.974-6.325.313-20.95 1.21-32.5 1.993-45.447 3.083-51.76 3.467-73.5 4.477-12.375.575-31.725 1.677-43 2.449s-31.525 1.907-45 2.521c-28.971 1.32-44.31 2.705-50.018 4.517-2.981.946-7.806 7.126-8.986 11.51-.619 2.298-.814 6.727-.453 10.263 1.523 14.904 7.677 62.922 9 70.221 2.138 11.792 5.173 32.15 8.498 57 1.619 12.1 3.401 24.925 3.961 28.5 1.507 9.632 3.961 26.537 5.008 34.5 1.866 14.186 6.086 44.178 7.037 50 .538 3.3 1.644 10.95 2.457 17 3.795 28.243 4.449 32.436 6.063 38.842 1.292 5.131 2.562 7.658 5.078 10.102 2.52 2.447 3.355 4.111 3.355 6.685 0 3.383 1.946 7.17 4.954 9.641 3.494 2.87 41.531 30.583 54.546 39.741 18.839 13.256 59.564 42.936 72.39 52.757 15.928 12.196 19.872 13.382 33.778 10.157 3.736-.867 8.151-1.758 9.812-1.982 5.416-.73 18.294-3.469 48.731-10.365 4.791-1.086 14.016-2.917 20.5-4.07 23.365-4.155 58.942-11.156 66.289-13.045 6.591-1.695 37.089-7.79 42.5-8.494 1.1-.143 10.325-2.145 20.5-4.449a2533 2533 0 0 1 37-8.024c10.175-2.11 33.575-7.19 52-11.289s40.475-8.905 49-10.681c33.655-7.008 37.87-8.434 40.356-13.647 1.84-3.858 2.175-11.518.631-14.404-1.094-2.044-10.72-6.843-43.487-21.68-11.55-5.23-24.375-11.085-28.5-13.012s-14.25-6.543-22.5-10.257c-43.496-19.581-55.93-25.26-65.5-29.915-5.775-2.809-11.561-5.108-12.858-5.109-1.979-.002-2.263-.382-1.766-2.363.326-1.298-.731-10.41-2.348-20.25s-3.422-21.714-4.012-26.389a11596 11596 0 0 0-6.507-50.5c-2.479-18.806-10.394-73.737-12.535-87-1.066-6.6-2.856-19.2-3.977-28-2.897-22.739-6.813-48.814-8.559-57-3.458-16.208-2.99-15.959-30.438-16.148-11.825-.081-22.4.019-23.5.223m4 4.095c-2.75.189-10.4.797-17 1.35s-20.775 1.671-31.5 2.484-21.975 1.764-25 2.112c-6.297.726-6.092-.605.269-1.744 10.269-1.839-28.194.701-62.769 4.144-13.296 1.324-41.793 2.888-64 3.512-19.383.545-53.776 2.907-55.208 3.791-.482.298-8.057.8-16.834 1.115S67.575 39.265 64 39.579s-8.75.708-11.5.873c-28.003 1.682-28.942 2.99-24.57 34.25 1.061 7.589 3.112 22.798 4.557 33.798s4.38 32.15 6.521 47 4.843 34.2 6.003 43 3.191 23.425 4.513 32.5 2.867 19.875 3.433 24c2.095 15.269 6.114 42.67 7.041 48 1.012 5.823 3.479 23.485 5.029 36 1.306 10.551 1.841 12.563 4.115 15.453 2.489 3.164 5.678 3.23 8.57.178 2.183-2.303 4.501-2.767 20.288-4.057 1.925-.157 4.963-.632 6.75-1.055 2.196-.52 3.25-.404 3.25.356 0 .619-1.237 1.157-2.75 1.195s-3.65.494-4.75 1.011c-1.539.724-1.193.826 1.5.444 1.925-.274 8.881-1.197 15.458-2.053s12.202-1.824 12.5-2.153-1.258-.328-3.458.001-7.15.832-11 1.118l-7 .521 8-1.461c7.562-1.381 24.985-3.893 36-5.19 10.65-1.253 3.288.645-9.013 2.324-7.143.976-12.129 1.954-11.08 2.174 4.182.879 75.501-9.292 82.593-11.778 1.375-.482 4.3-1.109 6.5-1.393l4-.516-4 1.364c-2.2.75-3.217 1.398-2.259 1.44 1.719.076 43.09-6.022 53.759-7.923 3.025-.539 7.3-1.224 9.5-1.521 2.2-.298 5.8-.791 8-1.095 2.2-.305 5.578-1.143 7.506-1.863 3.507-1.31 16.13-3.088 19.036-2.681.848.118 6.248-.459 12-1.283 25.724-3.684 58.96-8.718 75.958-11.505 10.175-1.669 21.65-3.509 25.5-4.089 13.006-1.961 11.864-.955 11.091-9.765-.371-4.234-1.552-13.098-2.623-19.698s-2.638-16.67-3.479-22.378-1.768-10.764-2.059-11.236c-1.2-1.941-2.565-13.125-2.977-24.386-.241-6.6-.866-14.25-1.388-17l-.95-5 .199 4.75c.386 9.163-1.106 4.642-1.815-5.5-.394-5.637-1.328-13.779-2.077-18.092s-1.29-8.138-1.204-8.5-.433-3.169-1.152-6.239c-.72-3.069-1.133-7.418-.919-9.665s.111-3.914-.229-3.703c-.341.21-1.412-7.365-2.381-16.834s-2.143-19.467-2.61-22.217l-.85-5 .419 6c.23 3.3.642 9.15.915 13 .93 13.122-1.176-.71-2.893-19-.877-9.35-2.209-19.475-2.959-22.5-.751-3.025-1.665-8.809-2.032-12.852-.368-4.044-.938-8.055-1.268-8.914-.367-.957-.187-1.308.463-.906.729.451.81-.517.26-3.086-.442-2.058-1.114-7.005-1.494-10.992s-1-7.25-1.377-7.25-.784-1.462-.904-3.25c-.511-7.598-3.444-12.958-6.169-11.274-.604.374-.965.084-.813-.652.273-1.312-25.332-2.076-38.725-1.154m23.769 1.023c.973.254 2.323.237 3-.037s-.119-.481-1.769-.461-2.204.244-1.231.498m-90.019.996c.962.252 2.538.252 3.5 0 .962-.251.175-.457-1.75-.457s-2.712.206-1.75.457m9 .027c1.512.229 3.988.229 5.5 0s.275-.416-2.75-.416-4.262.187-2.75.416m-36.715 4.228c-.538.87 13.356.308 14.382-.582.229-.199-2.782-.362-6.691-.362-3.91 0-7.37.425-7.691.944m-8.785.762c1.238.238 3.262.238 4.5 0 1.238-.239.225-.434-2.25-.434s-3.488.195-2.25.434m123.75 3.436c-8.25.392-20.4 1.205-27 1.806s-15.6 1.272-20 1.49c-14.879.738-74.859 4.534-97.5 6.17l-33.5 2.422c-6.05.437-14.15 1.254-18 1.814-3.85.561-13.975 1.247-22.5 1.525-22.526.734-57.374 2.502-73.5 3.728l-25.522 1.942c-6.337.482-14.788.96-18.779 1.06-8.466.214-9.18.897-8.055 7.699.428 2.586 1.913 13.477 3.299 24.202s5.214 39.075 8.505 63 6.714 48.9 7.607 55.5 3.163 21.122 5.046 32.272 4.078 26 4.877 33 2.796 21.728 4.439 32.728c6.39 42.798 6.17 41.944 10.575 40.975 7.148-1.574 33.884-5.556 43.508-6.481 11.061-1.062 26.897-3.294 60-8.456 8.525-1.329 19.775-2.91 25-3.512a714 714 0 0 0 19-2.508c5.225-.776 15.125-2.153 22-3.06s21.5-3.005 32.5-4.663c11-1.657 22.925-3.441 26.5-3.963s12.125-1.81 19-2.859c23.715-3.62 67.237-9.611 76-10.462 3.575-.348 10.913-1.515 16.307-2.595s10.235-1.699 10.758-1.376 1.542-.004 2.265-.727c1.5-1.5 1.53-1.221-5.321-49.313-1.235-8.67-3.967-28.858-5.006-37-.491-3.85-2.077-14.875-3.523-24.5s-3.034-20.425-3.527-24-2.051-14.15-3.46-23.5c-2.644-17.54-3.271-21.942-5.913-41.5a1456 1456 0 0 0-6.7-44.5c-1.098-6.6-2.11-12.792-2.249-13.76-.444-3.108-1.867-3.324-17.131-2.598M144.5 36l-10 .613 12 .075c6.6.041 13.35-.268 15-.688 3.684-.937-1.7-.937-17 0M120 37l-9.5.617 11.75.192c7.294.118 11.75-.188 11.75-.809 0-.55-1.012-.914-2.25-.809-1.238.106-6.525.47-11.75.809m245 .168c-3.025.396-13.375 1.189-23 1.762-9.625.574-22.675 1.489-29 2.035-28.125 2.424-43.167 3.448-52 3.539-5.225.054-10.85.391-12.5.75s-10.2.922-19 1.251-16.9.787-18 1.018-11.225.898-22.5 1.484c-11.275.585-29.95 1.916-41.5 2.956s-27.244 1.944-34.876 2.008c-11.84.101-34.134 1.434-42.624 2.55-1.375.181-8.951.9-16.836 1.598l-14.336 1.27.614 3.055c.338 1.681 1.032 5.981 1.542 9.556 5.208 36.522 8.015 58.223 7.761 60-.239 1.668.065 3.716 4.379 29.5 1.657 9.9 3.594 21.488 4.306 25.75.711 4.262.905 7.75.431 7.75-.473 0-.913-1.012-.977-2.25s-.296-1.575-.517-.75c-.22.825.298 3.975 1.152 7s2.2 10.45 2.992 16.5c2.078 15.876 9.803 68.273 11.5 78 .479 2.75 2.095 14 3.59 25s2.834 20.15 2.976 20.334c.435.564 17.848-1.719 40.423-5.3 29.546-4.686 40.366-6.259 55.5-8.066 7.15-.853 15.25-1.98 18-2.504 6.778-1.291 45.407-6.485 59-7.933 6.05-.644 13.7-1.574 17-2.066s11.85-1.616 19-2.499 15.25-2.234 18-3.004c2.75-.769 6.8-1.609 9-1.865 2.2-.257 9.175-1.176 15.5-2.043s18.475-2.524 27-3.682 17.525-2.452 20-2.876c6.277-1.073 39.646-6.05 44.5-6.637 2.2-.266 4.945-.672 6.099-.902l2.099-.419-2.344-13.769c-1.289-7.573-3.262-20.969-4.385-29.769-2.429-19.03-6.366-48.077-8.405-62-.805-5.5-2.418-17.2-3.584-26-1.167-8.8-4.336-29.725-7.042-46.5-2.707-16.775-5.617-35.9-6.468-42.5-.85-6.6-2.265-16.64-3.143-22.311l-1.597-10.311-11.115.286c-6.113.156-13.59.608-16.615 1.004M105.5 38l-3 .763 3.191.119c1.755.065 3.469-.332 3.809-.882.684-1.107.349-1.107-4 0m217.769.693c.973.254 2.323.237 3-.037s-.119-.481-1.769-.461-2.204.244-1.231.498m-16.005 1.025c1.52.229 3.77.223 5-.014s-.014-.425-2.764-.418-3.756.202-2.236.432m-244.514.971c-.962.252-1.75.901-1.75 1.443 0 .552.551.631 1.25.181.688-.443 3.95-1.076 7.25-1.407l6-.601-5.5-.037c-3.025-.02-6.288.17-7.25.421m-18.479 2.27c-3.976.367-7.548.985-7.937 1.374-.972.972 16.799-.395 18.666-1.436 1.735-.967.356-.959-10.729.062m-13.519 3.882c-1.558.94-2.735 2.525-2.719 3.659.027 1.765.272 1.676 2.082-.75 1.129-1.513 2.689-2.75 3.468-2.75.78 0 1.417-.45 1.417-1 0-1.334-.959-1.144-4.248.841m-9.947 5.227c-.332.863-.239 3.559.206 5.992s.555 4.834.244 5.336c-.31.502-.044.592.59.199 1.246-.769 1.387-6.546.259-10.595-.53-1.903-.84-2.125-1.299-.932m67.945.638c1.237.238 3.263.238 4.5 0 1.237-.239.225-.434-2.25-.434s-3.487.195-2.25.434M22.434 70c.379 3.025.71 6.51.734 7.743s.483 1.973 1.019 1.641c.536-.331.662-1.791.28-3.243-.382-1.453-.812-4.346-.954-6.431-.143-2.084-.599-4.109-1.015-4.5-.415-.39-.444 1.765-.064 4.79m3.492 21.25c-.715 2.404-.723 5.11-.022 6.95.696 1.826.867 1.321.828-2.45-.04-3.878-.398-5.875-.806-4.5m7.273 10.25c0 1.1.361 3.125.801 4.5.634 1.98.801 2.084.801.5 0-1.1-.361-3.125-.801-4.5-.634-1.98-.801-2.084-.801-.5m-5.28 2.25c-.454 4.187-.355 6.25.298 6.25.431 0 .783-1.575.783-3.5 0-2.961-.83-5.072-1.081-2.75m.814 11.5c.744 5.831 1.267 6.003 1.267.417 0-2.567-.407-4.667-.905-4.667s-.661 1.912-.362 4.25m-1.908 7.424c.426 2.093.678 2.345.969.97.217-1.021-.043-2.293-.576-2.826-.626-.626-.766.031-.393 1.856m3.797 4.151c-.443 1.279-.539 2.592-.213 2.917 1.036 1.037 1.765-.492 1.385-2.906l-.368-2.336zM32.041 133c-.114 1.375-.32 3.512-.457 4.75s.173 2.25.69 2.25.64.787.274 1.75c-.441 1.159-.332 1.412.324.75.614-.621.684-3.087.184-6.5-.444-3.025-.9-4.375-1.015-3m.299 13.556c-.328.856-.138 2.994.424 4.75.987 3.091 1.017 3.04.911-1.556-.117-5.056-.379-5.684-1.335-3.194m389.76 7.527c.055 1.88.475 4.542.934 5.917.538 1.614.632.551.264-3-.651-6.292-1.346-7.984-1.198-2.917M37 179.941c0 2.232.176 4.059.391 4.059.8 0 1.19-7.141.415-7.62-.443-.274-.806 1.329-.806 3.561m1.845 6.548c-.269.269-.152 2.856.26 5.75.412 2.893.782 6.138.822 7.211.045 1.191.422 1.58.969 1 .528-.56.524-3.589-.01-7.377-.929-6.586-1.192-7.434-2.041-6.584M46.232 196c0 1.925.206 2.713.457 1.75.252-.963.252-2.537 0-3.5-.251-.963-.457-.175-.457 1.75m.986 7c.01 1.375.362 3.85.782 5.5l.763 3 .019-3c.01-1.65-.342-4.125-.782-5.5l-.801-2.5zm-5.387 2.75c-.266 1.787-.156 3.25.247 3.25.402 0 .746 3.037.765 6.75s.272 8.1.563 9.75c1.063 6.018 2.632 16.166 3.558 23 .522 3.85 1.605 11.5 2.408 17s2.214 15.4 3.135 22c.922 6.6 1.93 12.675 2.242 13.5s.476 2.063.365 2.75c-.111.688.317 1.25.951 1.25.709 0 .926-.901.564-2.344-.324-1.288-1.521-8.601-2.662-16.25a23874 23874 0 0 0-2.525-16.906c-.249-1.65-2.267-16.95-4.484-34-4.486-34.503-4.449-34.291-5.127-29.75m391.364 28.75c.02 1.65.244 2.204.498 1.231s.237-2.323-.037-3-.481.119-.461 1.769M438 300.906c-.825.465-3.679 1.16-6.342 1.545-2.663.384-4.604.936-4.314 1.227.927.926 10.432-.792 12.329-2.229 1.989-1.508.752-1.909-1.673-.543m-21 4c0 .499.9.671 2 .384s2-.696 2-.907c0-.21-.9-.383-2-.383s-2 .408-2 .906m-361.333 1.761c-.367.366-.653 1.379-.637 2.25.025 1.3.221 1.257 1.092-.242 1.077-1.852.765-3.228-.455-2.008M398 308c-2.06.66-2.148.816-.5.885 1.1.046 2.675-.352 3.5-.885 1.752-1.132.536-1.132-3 0m17.5 1-3 .763 2.691.119c1.48.065 2.969-.332 3.309-.882s.479-.947.309-.882-1.659.462-3.309.882m9.5.544c-5.225.755-10.3 1.853-11.277 2.44-.977.586-7.952 1.95-15.5 3.03a3029 3029 0 0 0-27.723 4.124c-7.7 1.188-15.575 2.241-17.5 2.34-4.586.236-19.294 2.388-25 3.658-2.475.55-7.65 1.395-11.5 1.875-6.557.819-29.242 4.182-60.5 8.969-7.425 1.137-16.755 2.495-20.734 3.017-6.202.814-31.394 4.687-51.766 7.957-3.3.529-7.816.71-10.036.401-2.441-.339-7.974.288-14 1.587-22.447 4.839-36.841 7.067-37.611 5.821-.57-.923-3.139-.779-11.048.618-5.668 1.002-13.23 2.207-16.805 2.679-13.724 1.811-15.581 2.131-18.25 3.141-1.513.573-2.75 1.364-2.75 1.759 0 .937 15.335 13.158 24.517 19.54 7.22 5.018 18.165 13.114 30.717 22.723 3.704 2.835 7.471 5.263 8.372 5.395.9.133 2.82 1.354 4.266 2.715 5.641 5.31 67.9 51.268 72.426 53.463 8.194 3.975 17.35 3.681 43.702-1.406 39.664-7.656 57.618-11.335 53-10.858-6.078.627-3.047-1.073 3.5-1.963 2.75-.374 12.65-2.259 22-4.188 9.35-1.93 24.875-5.074 34.5-6.986 9.625-1.913 19.075-3.902 21-4.422s10.475-2.302 19-3.961 22.7-4.591 31.5-6.517c23.039-5.04 36.692-7.836 56.227-11.515 10.957-2.064 16.994-3.623 16.586-4.282-.388-.629-.01-.796.958-.424.88.337 1.741.231 1.914-.236.173-.468 5.04-1.593 10.815-2.502 16.524-2.599 39.459-6.7 39.917-7.138.229-.219-.896-.441-2.5-.494-2.258-.074-1.786-.373 2.083-1.323 2.75-.675 5.428-.857 5.95-.404s1.647.787 2.5.744c1.302-.066 1.317-.171.091-.653-.803-.316 2.797-1.411 8-2.433 5.202-1.023 13.038-2.561 17.413-3.419 9.845-1.93 14.948-3.957 13.966-5.545-.812-1.314-38.71-19.916-62.42-30.638-8.525-3.855-21.125-9.694-28-12.976s-17.9-8.327-24.5-11.213-17.625-7.725-24.5-10.754l-21-9.253c-9.785-4.311-14.629-4.714-30-2.493m-368.421 6.328c-.383.62-.172 1.128.469 1.128.698 0 .898.703.5 1.75-.505 1.326-.385 1.471.496.596.786-.779.85-1.712.198-2.878-.653-1.166-1.191-1.36-1.663-.596m282.921 1.179c-1.346.613-.366.711 3 .301 2.75-.334 5.188-.776 5.417-.98.877-.783-6.516-.187-8.417.679m89 .433c-3.85.712-11.05 1.877-16 2.589-4.95.713-9.675 1.444-10.5 1.624s-3.75.569-6.5.864c-2.75.294-8.825 1.182-13.5 1.973s-16.15 2.583-25.5 3.982a5586 5586 0 0 0-32.5 4.973c-8.525 1.336-20.45 3.132-26.5 3.991s-16.85 2.46-24 3.559a2864 2864 0 0 1-20.5 3.077 1454 1454 0 0 0-16 2.424c-4.675.739-11.2 1.631-14.5 1.983s-9.6 1.265-14 2.031c-4.4.765-9.8 1.599-12 1.854s-15.25 2.125-29 4.155-33.094 4.874-42.987 6.319c-14.649 2.139-18.047 2.934-18.307 4.287-.188.976.527 1.929 1.737 2.313 1.131.359 2.057 1.072 2.057 1.585s.9.933 2 .933 2 .344 2 .764 1.772 1.859 3.937 3.197 3.714 2.795 3.441 3.236.138.803.913.803 3.273 1.35 5.55 3c2.278 1.65 4.596 3 5.15 3s1.009.675 1.009 1.5.789 1.5 1.753 1.5c.965 0 3.028 1.35 4.585 3s3.713 3 4.791 3c1.311 0 1.861.579 1.665 1.75-.179 1.068.25 1.634 1.101 1.452.767-.164 2.682.935 4.255 2.442s3.646 2.854 4.605 2.993 2.362 1.177 3.117 2.308 1.992 2.055 2.75 2.055 1.378.39 1.378.867 1.913 2.12 4.25 3.652c2.338 1.532 4.6 3.374 5.028 4.094 1.022 1.72 13.391.97 18.38-1.115 1.973-.824 4.994-1.505 6.714-1.513s6.571-.883 10.778-1.944 10.058-2.043 13-2.185 5.86-.628 6.484-1.082 4.085-1.021 7.691-1.259 13.22-1.755 21.365-3.372c8.146-1.617 20.885-3.898 28.31-5.069l19.5-3.076c3.3-.521 12.051-1.887 19.446-3.035s13.742-2.27 14.103-2.493c.361-.224 3.986-.898 8.054-1.499 4.068-.6 12.797-2.164 19.397-3.475s18.219-3.304 25.819-4.429c12.738-1.885 20.567-3.964 15.181-4.031-1.1-.014-3.629.428-5.62.981s-6.716 1.411-10.5 1.908c-12.618 1.655-40.792 6.078-47.88 7.516-9.682 1.965-39.288 7.09-55.374 9.585l-13.374 2.075-5.914-3.971c-4.548-3.054-5.501-4.091-4.126-4.492 3.998-1.165 36.988-7.256 46.788-8.638 3.85-.543 11.725-1.855 17.5-2.914 26.292-4.825 45.374-8.201 55.604-9.84l11.104-1.778 8.331 4.788c7.042 4.047 8.728 4.642 10.896 3.845 2.368-.871 2.396-.949.374-1.022-1.205-.043-2.475-.539-2.823-1.101-1.024-1.658-12.174-6.949-13.026-6.182-.429.387-.457.142-.061-.546.395-.687 1.93-1.268 3.41-1.29s5.959-.613 9.952-1.314l7.262-1.274 6.057 3.564c5.911 3.478 5.989 3.579 3.238 4.196-2.169.486-2.357.695-.818.907 3.537.488 3.678.466 29-4.602 9.9-1.981 20.7-3.995 24-4.476s12.975-2.259 21.5-3.95 16.075-3.135 16.778-3.21c.703-.074 1.126-.59.94-1.146-.383-1.151-1.403-1.716-7.718-4.276-2.475-1.003-4.725-2.076-5-2.385s-3.538-1.834-7.25-3.39-6.75-3.146-6.75-3.533c0-.386-2.587-1.746-5.75-3.022-5.898-2.378-16.393-7.285-35.75-16.715-11.769-5.734-12.859-5.908-24-3.85m2.611 2.121C422.397 321.186 421 322 427.001 322c7.054 0 17.874-2.148 15.499-3.077-2.448-.958-2.306-.966-11.389.682m-21.611 3.313c-5.374.986-8.487 1.97-7.726 2.441.701.434 2.614.495 4.25.136 1.867-.41 2.976-.252 2.976.426 0 .593-1.687 1.111-3.75 1.149-3.537.067-9.236 1.709-6.452 1.86.714.038 3.161.97 5.438 2.07 4.855 2.346 5.773 2.392 16.099.821l7.836-1.193-4.336-2.269c-5.241-2.743-2.746-3.107 3.36-.49 4.288 1.838 4.569 1.834 16.988-.25l12.628-2.119-5.156-2.252c-5.037-2.2-5.362-2.218-14.155-.767-11.435 1.886-14.947 1.89-16.5.019-.685-.825-1.527-1.44-1.872-1.367s-4.678.876-9.628 1.785m5.5 1.47c-3.693.692-4.678 1.139-3 1.361 3.058.403 10.865-1.129 9.49-1.863-.545-.291-3.465-.065-6.49.502m-28.251 2.059c-3.714.672-7.089 1.586-7.5 2.031-.412.445.645.545 2.348.221 1.704-.323 6.53-.899 10.725-1.279 4.196-.38 7.388-1.08 7.094-1.556-.685-1.108-4.231-.945-12.667.583m65.751 2.021c-3.85.697-7.337 1.075-7.75.84s-.75.051-.75.633.563 1.073 1.25 1.09 3.332 1.052 5.877 2.3c4.342 2.129 5.113 2.2 12.5 1.151l7.873-1.119-5.5-2.926c-3.025-1.609-5.725-2.995-6-3.08s-3.65.415-7.5 1.111m-87.172.926c-3.395.608-6.507 1.443-6.917 1.856-1.077 1.085 3.944.921 11.372-.373 3.685-.641 6.719-.744 7.082-.239.349.486 2.892 1.918 5.65 3.183 4.701 2.156 5.543 2.234 13.473 1.24 4.653-.584 8.921-1.065 9.486-1.071.564-.005-1.449-1.181-4.474-2.612-5.309-2.513-5.793-2.565-13.942-1.51-7.135.925-8.696.865-10.079-.387-1.83-1.656-2.856-1.664-11.651-.087m69.172 1.668c-2.75.455-6.54 1.112-8.422 1.46l-3.422.633 5.672 2.566c4.732 2.141 7.299 4.279 5.139 4.279-1.019 0-10.97-5.267-11.498-6.086-.485-.753-5.181-.293-16.788 1.643l-4.319.721 6.319 3.113c4.981 2.454 7.06 2.975 9.819 2.461 6.962-1.298 15.483-2.028 14.73-1.261-.424.43-1.554.841-2.511.911s-5.786.885-10.73 1.811-15.617 2.696-23.719 3.935l-14.729 2.253 5.334 2.886 5.335 2.886 9.395-1.453 9.395-1.452-4.25-1.793c-2.337-.986-4.25-2.224-4.25-2.751 0-1.142 3.1-.274 8.192 2.295 2.031 1.024 4.506 1.605 5.5 1.29 1.672-.529 1.666-.457-.077.968-1.037.848-3.962 1.841-6.5 2.208s-9.34 1.431-15.115 2.365l-10.5 1.698 4.5 2.292c2.475 1.261 5.202 2.908 6.06 3.66 1.321 1.156 2.932 1.132 10.5-.157 4.917-.838 9.375-1.65 9.906-1.805s-1.269-1.36-4-2.678c-6.052-2.92-5.924-2.835-5.256-3.503.298-.299 3.186.691 6.416 2.199s6.264 2.635 6.741 2.504 3.851-.381 7.5-.555 7.421-.656 8.383-1.068c.963-.414 1.75-.325 1.75.196s-2.561 1.562-5.691 2.313l-5.691 1.365 5.437 2.383c2.989 1.31 5.717 2.838 6.062 3.395.42.679 2.393.651 6.004-.085a462 462 0 0 1 9.879-1.893l4.5-.795-4.823-2.422c-2.653-1.332-5.042-2.775-5.309-3.208-.991-1.604 2.284-.666 7.264 2.08l5.132 2.83 8.368-1.487c4.602-.817 8.58-1.673 8.839-1.902.854-.754-2.261-2.133-3.63-1.607-.738.282-1.341.016-1.341-.593s-.675-1.107-1.5-1.107-1.5-.401-1.5-.892c0-1.955-5.291-1.994-15.635-.113-5.976 1.086-11.99 1.964-13.365 1.951-2.417-.023-2.401-.067.5-1.319 1.65-.712 6.444-1.901 10.654-2.642l7.654-1.349-5.154-2.438c-7.069-3.345-4.161-3.986 3.166-.698l5.889 2.642 9.895-1.606c5.443-.883 12.821-2.24 16.396-3.014s8.251-1.691 10.392-2.037l3.891-.629-5.391-2.551c-6.448-3.05-4.69-3.009-19.392-.452-14.358 2.497-17.166 2.896-29.5 4.187-5.225.547-11.716 1.448-14.423 2.004-3.349.686-5.252.681-5.95-.017-.703-.703-.253-1.041 1.423-1.072 2.062-.038 1.737-.427-2.05-2.455-5.548-2.971-2.529-3.377 3.787-.51 3.736 1.695 5.216 1.825 11.5 1.009 3.967-.516 7.776-.951 8.463-.968 2.527-.063 1.113-1.583-3.259-3.505-2.47-1.086-4.491-2.251-4.491-2.59 0-.61 5.65-2.545 9.5-3.253 1.685-.31 1.527-.553-1-1.543-1.65-.646-4.636-2.067-6.636-3.157-2-1.091-3.8-1.93-4-1.865s-2.614.489-5.364.944m-194.5.844c0 .499.9.671 2 .384s2-.696 2-.907c0-.21-.9-.383-2-.383s-2 .408-2 .906m106 .771c-3.575.687-8.3 1.499-10.5 1.804-21.25 2.952-40.048 5.739-40.476 6.002-.288.177-2.999.593-6.024.924-3.025.33-7.975 1.061-11 1.624-3.025.562-7.75 1.242-10.5 1.51-2.75.267-7.25.97-10 1.561s-7.475 1.272-10.5 1.513-8.425 1.123-12 1.962c-3.575.838-10.55 1.595-15.5 1.68-5.735.1-7.912.401-6 .831 2.732.615 2.621.686-1.25.794-4.037.112-5.693 1.436-3 2.398.688.245.915.805.506 1.244s-1.569.05-2.579-.863c-2.369-2.145-3.166-2.115-20.269.765-7.925 1.334-17.22 2.728-20.658 3.098-3.437.37-6.25 1.136-6.25 1.703 0 .661 1.825.789 5.087.356 3.443-.457 4.879-.337 4.441.371-.355.575-1.483 1.046-2.505 1.046-5.11 0-5.14 1.293-.093 4.053 5.081 2.778 5.087 2.779 14.054 1.553 4.934-.675 9.211-1.467 9.504-1.76s-1.272-1.347-3.478-2.341c-2.205-.995-4.01-2.235-4.01-2.755 0-.57-2.486-.664-6.25-.236-3.437.391-5.946.394-5.574.006.69-.72 14.911-3.126 24.824-4.2 8.473-.918 5.211.7-4.071 2.019l-8.237 1.171 4.925 3.061c3.94 2.449 5.502 2.907 7.808 2.291 1.585-.424 5.963-1.075 9.729-1.446s6.846-.989 6.846-1.374-2.267-1.762-5.038-3.06c-4.109-1.924-4.733-2.531-3.381-3.287 1.033-.578 1.895-.564 2.288.037.347.531 2.656 2.085 5.131 3.453 4.416 2.441 4.658 2.463 13 1.206 4.675-.705 8.95-1.312 9.5-1.349.55-.038-1.384-1.255-4.299-2.706-3.95-1.968-5-2.918-4.125-3.737.857-.802 1.298-.761 1.632.151.252.688 1.139 1.25 1.971 1.25s2.869.966 4.528 2.147c2.921 2.08 3.333 2.108 13.085.865l10.069-1.283-3.931-1.99c-4.701-2.38-4.935-2.568-4.164-3.338.329-.33 2.767.576 5.416 2.013 4.811 2.608 4.832 2.61 14.318 1.304l9.5-1.307-4.25-2.226c-6.193-3.243-5.749-4.631 1.845-5.776 3.079-.465 4.104-.347 3.405.392-.55.581-2.575 1.201-4.5 1.378l-3.5.321 5.067 2.617c4.668 2.41 5.573 2.546 11.5 1.718 11.898-1.663 11.883-1.654 6.928-4.147-2.392-1.203-4.53-2.744-4.751-3.424s2.57.234 6.203 2.032l6.604 3.267 9.207-1.473 9.207-1.474-4.232-1.846c-2.328-1.015-4.233-2.273-4.233-2.795s2.547.177 5.66 1.554c5.433 2.402 6.006 2.457 14.25 1.375 4.725-.621 8.726-1.252 8.892-1.402s-1.773-1.433-4.309-2.85c-4.166-2.329-5.103-2.485-9.689-1.615-6.457 1.225-11.3 1.24-8.304.026 1.1-.445 4.269-1.121 7.042-1.502 7.077-.971 9.555-1.388 12.708-2.139 1.749-.417 2.75-.249 2.75.461 0 .615-1.35 1.117-3 1.117-4.232 0-3.669 1.154 1.791 3.669 4.051 1.865 5.478 2.043 10.209 1.267 3.025-.495 6.962-1.001 8.75-1.123 4.191-.286 4.115-1.098-.25-2.677-1.925-.696-3.5-1.722-3.5-2.28 0-.639-2.5-.817-6.75-.481l-6.75.535 6.905-1.444c3.798-.794 7.08-1.618 7.293-1.83 1.083-1.083-4.966-1.06-10.698.041m-112.411.179c-.291.47.583.643 1.941.383s2.47-.645 2.47-.856c0-.773-3.899-.356-4.411.473m130.161.386c-6.903 1.182-7.152 1.951-1.352 4.166 3.756 1.434 5.615 1.527 12.724.636 4.579-.574 8.562-1.068 8.852-1.097.289-.029-1.695-1.154-4.41-2.5-5.28-2.617-6.866-2.738-15.814-1.205m-227.5.447c.963.252 2.537.252 3.5 0 .963-.251.175-.457-1.75-.457s-2.713.206-1.75.457M253 334c-2.656.559-2.897.755-1 .811 1.375.04 4.3-.299 6.5-.754 3.334-.689 3.501-.824 1-.81-1.65.009-4.575.348-6.5.753m208 3.069c-5.775 1.023-11.85 1.887-13.5 1.918-2.89.055-2.813.166 2.073 3.015l5.072 2.958 9.428-1.515c5.185-.834 10.552-1.726 11.927-1.984s4.271-.763 6.435-1.122l3.934-.654-4.934-2.307c-5.822-2.721-6.746-2.735-20.435-.309m-74.865 1.336-6.365 1.117 5.99 2.863c5.402 2.582 6.683 2.807 13.028 2.281 12.676-1.051 13.183-1.447 6.138-4.778-6.496-3.073-8.733-3.249-18.791-1.483M436.5 339c-1.928.829-1.921.862.191.93 1.205.038 2.469-.38 2.809-.93.731-1.183-.248-1.183-3 0m-135.75 2.242c-3.163.542-5.75 1.373-5.75 1.847 0 .473 1.462.612 3.25.308 8.547-1.455 13.75-2.578 13.75-2.968 0-.641-4.778-.296-11.25.813m66.25.258c-4.125.683-7.725 1.3-8 1.371-.275.072 2.22 1.417 5.543 2.99 5.965 2.821 6.15 2.843 14.246 1.67 9.01-1.306 10.551-1.979 7.036-3.071-1.279-.397-3.519-1.563-4.979-2.591-2.974-2.094-3.362-2.104-13.846-.369m-169.5.531c-2.2.447-5.125 1.308-6.5 1.914-2.404 1.059-2.385 1.078.5.49 1.65-.335 5.424-1.007 8.386-1.492 2.963-.486 5.625-1.121 5.917-1.413.731-.731-3.489-.476-8.303.501m-38.991.954c-.38.615.63.749 2.691.356 4.422-.842 4.803-1.341 1.026-1.341-1.71 0-3.382.443-3.717.985m188.105 1.571c-3.788.752-7.376 1.531-7.974 1.731-.597.199 1.545 1.567 4.763 3.04 5.81 2.66 5.912 2.669 15.357 1.409l9.509-1.268-5.134-2.405c-2.824-1.323-5.135-2.778-5.135-3.234 0-1.113-3.131-.913-11.386.727m-168.345.137c.973.254 2.323.237 3-.037s-.119-.481-1.769-.461-2.204.244-1.231.498M282.5 345c-1.832.787-1.79.864.5.914 1.375.031 3.175-.381 4-.914 1.968-1.272-1.54-1.272-4.5 0m-220.874 3c.623 3.587 1.095 4.65 1.741 3.917.202-.229-.244-1.992-.991-3.917l-1.358-3.5zM327 347.615c-4.125.743-8.175 1.482-9 1.643s1.053 1.682 4.174 3.38c5.189 2.824 6.125 3.016 10.949 2.253 2.902-.458 6.986-.934 9.076-1.058 5.03-.297 4.796-1.027-1.199-3.736-2.75-1.243-5-2.673-5-3.178 0-.506-.337-.86-.75-.787s-4.125.74-8.25 1.483m-69 .116c-1.925.227-3.95.875-4.5 1.442-1.19 1.226 9.131.101 11.5-1.254 1.617-.925-.29-.976-7-.188M69.438 350c.309.825.838 2.288 1.178 3.25s.978 1.75 1.419 1.75 1.513.273 2.383.607 1.582.109 1.582-.5S75.454 354 74.788 354c-.667 0-2.27-1.238-3.561-2.75-1.292-1.512-2.097-2.075-1.789-1.25M246 349.604l-9.25 1.458c-4.262.671-7.75 1.542-7.75 1.935 0 .692 18.08-1.788 18.917-2.595.672-.649-.298-1.053-1.917-.798M498 350c-1.375.44-4.337.845-6.583.9s-4.391.408-4.768.784-2.639.767-5.028.867c-2.39.101-6.724.754-9.631 1.451-4.87 1.169-5.115 1.361-3.1 2.439 2.092 1.12 10.902.147 17.761-1.961 1.3-.4 3.991.153 6.807 1.398 3.903 1.727 5.417 1.907 9.349 1.112 2.581-.521 6.943-1.31 9.693-1.753l5-.805-5.871-2.716c-5.96-2.757-9.131-3.157-13.629-1.716m-194.745 1.427c-3.435.676-6.467 1.452-6.739 1.723-.271.271 2.164 1.763 5.412 3.316l5.905 2.822 8.665-1.394 8.664-1.394-5.671-3.25c-6.188-3.546-7.02-3.64-16.236-1.823m57.245 1.084a4769 4769 0 0 1-18.5 3.174l-5.5.922 6 2.933c3.3 1.613 6.212 3.075 6.471 3.251 1.16.783-2.927 2.176-7.962 2.713-3.03.324-8.301 1.243-11.715 2.042-7.241 1.697-11.923 1.863-12.794.454-.37-.599.887-1 3.132-1h3.75l-5.613-3.38c-5.066-3.051-6.034-3.299-9.941-2.544-5.996 1.159-8.066 1.118-7.286-.144.363-.588 1.29-.827 2.059-.532.77.296 1.399.145 1.399-.334 0-.478-1.37-1.348-3.044-1.932-1.675-.583-4.367-2.003-5.983-3.154-2.884-2.053-3.113-2.062-12.158-.501-5.07.874-9.325 1.698-9.456 1.829s2.4 1.643 5.624 3.36c5.341 2.844 6.266 3.036 10.393 2.156 4.696-1.001 11.398-.704 8.624.383-2.074.813-15.627 3.184-33.75 5.906-8.387 1.26-15.25 2.649-15.25 3.089s.387.798.86.798c.474 0 2.603 1.182 4.731 2.627 3.841 2.606 3.938 2.617 12.39 1.43 11.989-1.683 12.098-1.757 7.018-4.786-2.428-1.448-3.871-2.814-3.206-3.035 1.481-.494 10.758 5.074 10.578 6.349-.072.503-3.672 1.448-8 2.099-4.329.65-11.021 1.88-14.871 2.732s-7.45 1.571-8 1.598.676 1.079 2.723 2.338c2.048 1.26 4.523 3.002 5.5 3.872 1.626 1.448 2.713 1.384 12.777-.755 6.05-1.286 10.428-2.368 9.729-2.404-1.994-.102-9.597-5.442-8.344-5.86.616-.205 3.454 1.063 6.306 2.818l5.186 3.191 7.562-1.186c11.98-1.879 12.684-2.104 10.437-3.336-4.741-2.599-9.526-5.876-9.141-6.26.493-.493 11.501 5.331 12.193 6.452.256.414 3.977.109 8.269-.679 14.246-2.616 13.459-2.094 7.553-5.019-2.887-1.43-5.25-2.957-5.25-3.393 0-1.513 2.122-.776 7.298 2.533l5.202 3.326 10-1.665 10-1.665-5.349-2.728c-2.943-1.501-5.095-2.984-4.782-3.296.703-.703 6.278 1.47 9.631 3.755 2.355 1.605 3.078 1.604 12.5-.012l10-1.715-5.349-2.73c-2.943-1.502-5.096-2.984-4.786-3.294.67-.67 7.452 2.359 9.741 4.35 1.377 1.198 3.015 1.171 11.481-.191 8.765-1.411 12.873-2.461 9.624-2.461-.618 0-3.362-1.32-6.099-2.934-4.796-2.828-5.224-2.899-11.794-1.966-3.75.532-10.418 1.107-14.818 1.278-7.715.3-7.804.279-2.5-.604 11.193-1.861 10.909-1.688 6.202-3.795-2.311-1.035-4.202-2.177-4.202-2.539 0-1.129 5.245.599 8.198 2.701 2.339 1.666 3.373 1.837 6.061 1.002 1.783-.553 6.108-1.312 9.612-1.686l6.371-.681-5.281-2.888c-6.1-3.336-5.447-3.325-22.461-.377m-268-.404c-2.2.482-6.025 1.145-8.5 1.474-4.574.609-5.705 1.047-4.865 1.887.78.78 17.865-2.66 17.865-3.597 0-.479-.112-.819-.25-.756s-2.05.509-4.25.992m33.009-.122c-.38.615.63.749 2.691.356 4.422-.842 4.803-1.341 1.026-1.341-1.71 0-3.382.443-3.717.985m298.491.57c0 .994 10.99 5.616 12.263 5.158.68-.245-1.406-1.631-4.637-3.079-5.89-2.641-7.626-3.114-7.626-2.079m-206 1.576c-7.768 1.268-8.548 1.964-1.608 1.434 3.241-.247 6.369-.926 6.95-1.507.582-.582.855-1.005.608-.941s-2.925.521-5.95 1.014M118 356l-2.5.801 2.75.099c1.513.055 2.75-.35 2.75-.9s-.112-.955-.25-.9-1.375.46-2.75.9m150.917.406c-.436.425-4.157 1.097-12.181 2.2-3.882.534-4.554.909-3.628 2.025.625.753 1.575 1.369 2.11 1.369s2.33.966 3.989 2.147c2.917 2.078 3.343 2.106 12.986.877l9.969-1.27-4.331-2.525c-2.382-1.389-5.041-3.134-5.91-3.877-1.652-1.415-2.31-1.622-3.004-.946m213.083.753c-7.249 1.521-7.796 1.809-5.687 2.993 1.253.703 4.419.618 10.257-.278 7.62-1.169 8.224-1.418 6.187-2.549-2.604-1.447-4.516-1.476-10.757-.166m-371.75.53c.963.252 2.537.252 3.5 0 .963-.251.175-.457-1.75-.457s-2.713.206-1.75.457m215.75.42c-11.081 1.762-10.975 1.663-5.271 4.921l5.082 2.903 8.837-1.543c4.861-.848 8.958-1.663 9.105-1.81s-1.537-1.081-3.743-2.075-4.01-2.19-4.01-2.657c0-.999-2.487-.934-10 .261M99.5 359l-3 .763 3.25.119c1.787.065 3.25-.332 3.25-.882s-.112-.947-.25-.882-1.6.462-3.25.882m-16.18 2.348c-5.994 1.652-6.197 2.485-.312 1.28 2.746-.563 4.992-1.384 4.992-1.825s-.112-.759-.25-.705-2.131.617-4.43 1.25m161.597-.958c-.229.215-3.034.69-6.232 1.057-5.804.664-11.697 2.365-8.631 2.49.855.034 3.555 1.304 6 2.821l4.446 2.757 9-1.181c4.95-.649 9.45-1.217 10-1.26.55-.044-1.61-1.653-4.8-3.577-5.209-3.14-8.598-4.217-9.783-3.107m-101.227 2.37c-6.12 1.056-8.491 1.839-7.766 2.564 1.187 1.187 19.895-1.743 21.522-3.37 1.302-1.302-2.991-1.051-13.756.806m71.919 2.11-8.891 1.656 5.391 3.427c2.965 1.884 5.679 3.357 6.03 3.273.352-.084 3.727-.622 7.5-1.197 12.306-1.873 12.218-1.826 7.747-4.191-2.137-1.131-4.596-2.682-5.465-3.447s-1.993-1.343-2.5-1.284-4.922.853-9.812 1.763m-90.609.724c-3.575.706-8.187 1.31-10.25 1.344-3.451.057-4.885 1.243-2.949 2.439.441.272 5.684-.264 11.652-1.192 8.251-1.283 10.516-1.949 9.449-2.78-1.02-.795-3.174-.744-7.902.189m23.25.285c-5.088.863-9.25 1.809-9.25 2.102s1.93 1.699 4.289 3.124c4.224 2.552 4.401 2.571 11.75 1.283 4.104-.72 9.014-1.326 10.911-1.348 3.882-.045 3.422-.849-2.174-3.797-2.048-1.08-3.435-2.251-3.083-2.603.855-.854-1.448-.625-12.443 1.239M293 364.843c0 .463 1.575 1.69 3.5 2.727 4.21 2.267 4.462 3.425.75 3.445-2.155.012-2.425.228-1.25.998 1.872 1.227 9.831.173 12.473-1.651 1.084-.749 2.884-1.398 4-1.441 1.115-.043 1.528-.285.917-.537-.61-.251-2.912-.052-5.116.443-3.496.786-4.667.536-9.19-1.963-5.662-3.128-6.084-3.268-6.084-2.021m-221.442 4.736c.327 2.977 1.442 4.591 1.442 2.088 0-.917.45-1.667 1-1.667s1 1.07 1 2.378c0 1.307.675 2.937 1.5 3.622s1.5 1.724 1.5 2.31c0 .585-1.414-.258-3.142-1.873s-2.74-2.2-2.25-1.3C74.377 378.386 98 395.981 98 394.051c0-.578.47-1.051 1.044-1.051s.911.607.75 1.348c-.304 1.396 3.473 4.962 10.751 10.152 2.314 1.65 11.35 8.426 20.081 15.057s18.124 13.581 20.874 15.445c11.102 7.525 27.663 20.168 27.123 20.708-.316.316-1.347-.052-2.291-.817-1.121-.911-1.457-.962-.968-.148.411.684 1.677 1.742 2.812 2.349 1.62.867 1.896.832 1.281-.164-1.676-2.711 4.364 1.142 24.414 15.576 3.503 2.522 6.562 4.394 6.797 4.16.234-.235-1.866-2.109-4.668-4.166s-4.869-3.965-4.593-4.24 2.41.903 4.744 2.62c2.334 1.716 4.675 3.12 5.203 3.12s-2.152-2.185-5.955-4.856c-6.601-4.636-10.452-8.144-8.94-8.144.388 0 2.693 1.629 5.123 3.62s4.408 3.229 4.397 2.75c-.012-.478-1.839-2.156-4.06-3.727-2.22-1.572-3.797-3.099-3.502-3.393.294-.294 1.333.092 2.309.857 1.623 1.274 1.654 1.24.364-.403-.776-.987-2.007-1.566-2.737-1.286s-4.82-2.088-9.09-5.262c-13.626-10.131-18.802-13.654-17.307-11.779.801 1.003 1.56 2.567 1.687 3.474.184 1.315-.075 1.244-1.277-.351-.829-1.1-1.909-1.893-2.401-1.762s-.648-.401-.348-1.182c.342-.892-.601-2.014-2.536-3.014-3.315-1.714-4.203-3.147-1.331-2.147 1.503.524 1.482.402-.147-.861-2.587-2.004-4.146-.792-2.013 1.565 1.187 1.312 1.324 1.901.443 1.901-1.001 0-.98.38.095 1.75 1.242 1.584 1.207 1.62-.367.387-.956-.75-1.485-1.774-1.176-2.275s.193-.788-.261-.637c-.453.151-4.649-2.669-9.324-6.267s-10.821-8.097-13.658-10c-2.837-1.902-5.013-3.606-4.837-3.788s1.5.442 2.939 1.386c1.44.943 2.853 1.48 3.14 1.194s-1.101-1.525-3.084-2.75-3.395-2.438-3.139-2.694c.257-.257 4.779 2.607 10.05 6.364s9.108 6.989 8.525 7.184c-1.219.407 1.823 4.146 3.374 4.146.55 0 .143-.97-.905-2.155l-1.905-2.155 2.81 1.809c1.598 1.029 2.362 2.086 1.771 2.451-.636.393-.271 1.299.94 2.336 2.172 1.86 2.727.92.729-1.233-1.02-1.1-.929-1.234.5-.732 3.191 1.123 1.859-.025-11.5-9.917-7.287-5.396-20.9-15.507-30.25-22.47s-18.35-13.502-20-14.533-7.95-5.668-14-10.304a8671 8671 0 0 0-12.113-9.273c-.762-.576-1.024-.021-.829 1.755m121.124-.838-7.818 1.49 5.574 3.358c5.923 3.568 5.598 3.546 17.838 1.223l5.775-1.096-4.986-3.358c-5.531-3.725-5.397-3.711-16.383-1.617m-65.182.41-9 1.647-4 .732 4.676 3.232c2.572 1.778 5.272 3.004 6 2.724s5.586-1.079 10.796-1.776l9.472-1.269-4.772-3.22c-5.079-3.428-5.439-3.484-13.172-2.07m45.249 2.794c-4.813.946-8.975 1.496-9.25 1.221-.274-.275-.473-.087-.441.417s2.242 2.319 4.912 4.032l4.853 3.116 10.297-1.616 10.297-1.615-2.673-1.75c-1.471-.962-3.07-1.75-3.554-1.75s-1.695-.9-2.69-2-2.078-1.949-2.405-1.887-4.533.886-9.346 1.832m62.89.621c-4.324.728-8.059 1.52-8.3 1.762-.242.241 1.755 1.789 4.437 3.439l4.877 3.001 9.384-1.672 9.385-1.672-3.961-2.42c-2.179-1.33-4.111-2.775-4.294-3.211-.41-.975-1.613-.895-11.528.773M283.5 373c-.731 1.183.248 1.183 3 0 1.928-.829 1.921-.862-.191-.93-1.205-.038-2.469.38-2.809.93M156 374.552c-5.278 1.128-26.808 4.821-28.25 4.846-2.362.041-2.453-.059 3.57 3.939 4.892 3.247 5.651 3.457 9.419 2.61 2.255-.506 8.725-1.616 14.379-2.465 16.256-2.441 15.799-2.154 9.655-6.071-5.188-3.306-5.779-3.498-8.773-2.859m60.5 1.007c-3.3.744-7.238 1.373-8.75 1.397-3.986.064-3.405 1.175 2.286 4.372l5.035 2.827 8.964-1.269c4.931-.698 8.962-1.52 8.957-1.827-.004-.308-1.804-1.585-4-2.839S225 375.504 225 374.97c0-1.189-.899-1.126-8.5.589m-124.778 1.515c1.222 1.273 2.474 2.063 2.781 1.756.308-.308-.692-1.349-2.222-2.315l-2.781-1.756zm-10.095 1.721c-.627 1.013.223 2.192 3.373 4.678 1.375 1.086 1.973 1.369 1.328.629-.644-.74-.947-1.931-.672-2.647.551-1.437-3.239-3.939-4.029-2.66m109.623 1.006c-5.088.849-9.25 1.807-9.25 2.129 0 .321 2.132 1.872 4.737 3.446l4.737 2.861 8.513-1.263c4.682-.694 9.355-1.294 10.383-1.332 1.629-.062 1.565-.268-.5-1.606-1.303-.845-3.403-2.548-4.665-3.786s-2.838-2.192-3.5-2.121c-.663.071-5.367.823-10.455 1.672m48.25 2.291c-9.939 2.117-20.573 4.14-27.125 5.161l-7.125 1.109 6.096 3.94c5.972 3.86 6.194 3.917 10.951 2.819 5.788-1.336 10.703-1.455 10.703-.258 0 .474-3.262 1.414-7.25 2.088-11.69 1.976-11.778 2.083-5.25 6.418l5.688 3.776 9.156-1.15c5.036-.632 11.856-1.745 15.156-2.472s8.475-1.642 11.5-2.034c8.654-1.121 9.006-1.758 3.153-5.7-2.829-1.905-4.846-3.762-4.482-4.127.92-.919-1.443-.788-6.171.342-2.2.526-6.7 1.206-10 1.511s-7.012.772-8.25 1.039c-2.318.499-3.211-1.067-1.024-1.796.674-.225-.901-1.655-3.5-3.178-2.599-1.524-4.726-3.22-4.726-3.77 0-1.054 9.046 3.832 10.132 5.471.518.782 19.593-1.673 20.567-2.647.136-.135-1.991-1.553-4.726-3.15S248 382.224 248 381.79c0-.956-3.114-.845-8.5.302m-151.343 2.929c1.346 3.861 4.843 6.037 4.843 3.014 0-1.119-.405-1.922-.9-1.785s-.983-.2-1.085-.75c-.261-1.41-2.103-3.5-3.085-3.5-.454 0-.352 1.359.227 3.021m78.554-1.028c-4.834 1.019-12.821 2.424-17.75 3.121-4.928.698-8.953 1.52-8.943 1.827.01.308 2.153 1.955 4.764 3.66l4.745 3.101 19.487-3.304a8887 8887 0 0 1 19.836-3.351c1.174-.158-10.358-7.034-11.7-6.977-.908.039-5.605.904-10.439 1.923M408 383.016c-1.925.448-5.3 1.088-7.5 1.423-9.707 1.476-23.068 3.869-36.5 6.537-7.975 1.585-19 3.6-24.5 4.478s-13.375 2.219-17.5 2.982a4250 4250 0 0 1-14.873 2.715c-8.491 1.53-9.511 2.795-5.57 6.909 2.848 2.972 5.166 3.992 3.842 1.69-.418-.726-.338-.901.191-.417.5.459.91 1.198.91 1.643 0 1.03 33.198 25.157 34.974 25.417.728.107 2.033.783 2.899 1.502 1.903 1.579 10.396.838 21.627-1.886 4.125-1 10.65-2.329 14.5-2.954 3.85-.624 8.35-1.553 10-2.063s4.35-1.156 6-1.436 10.875-2.07 20.5-3.978 19.863-3.777 22.75-4.153S445 420.408 445 420s2.137-1.036 4.75-1.396c15.791-2.172 21.75-3.857 21.75-6.152 0-1.865-7.233-6.557-35.148-22.801-14.084-8.196-17.858-9.079-28.352-6.635m7.5 1.552c-.55.226-3.7.823-7 1.327-13.053 1.992-43.666 7.268-55.5 9.565-6.875 1.334-20.825 3.846-31 5.582s-18.928 3.561-19.45 4.057c-.595.564-.539.901.15.901 1.487 0 11.8 7.81 11.8 8.937 0 .493.41 1.271.91 1.73.529.484.609.309.191-.417-1.448-2.516 1.107-1.062 10.573 6.016 5.321 3.979 10.496 7.818 11.5 8.532 1.649 1.172 1.657 1.248.076.781-2.403-.709-2.199.11.371 1.486 1.49.797 1.918.808 1.441.035-1.124-1.819.476-1.246 3.404 1.218l2.755 2.318 16.39-3.172a9680 9680 0 0 1 41.389-7.872c24.659-4.635 48.859-9.502 59.4-11.946l5.401-1.252-10.741-6.447c-35.673-21.411-38.491-22.844-42.06-21.379m-319.957 5.363a1.086 1.086 0 0 0 .336 1.494c.501.31 1.169-.109 1.485-.931.622-1.62-.881-2.085-1.821-.563m93.957 1.025c-4.4.983-14.635 3.024-22.745 4.535l-14.746 2.748 5.355 3.751 5.356 3.751 18.89-3.345c10.389-1.84 22.002-3.919 25.805-4.621l6.915-1.275-5.65-3.75c-6.373-4.23-7.714-4.356-19.18-1.794M105 395.5c.982 1.183.984 1.5.012 1.5-.679 0-.173.859 1.124 1.909 1.685 1.364 2.569 1.578 3.096.75.697-1.096.844-.934 1.143 1.258.224 1.642 1.625 2.458 1.625.946 0-.809-1.484-2.909-3.298-4.667-3.34-3.238-5.988-4.451-3.702-1.696m491.5 1.091c-6.05 1.331-19.55 4.199-30 6.375s-30.475 6.475-44.5 9.553-29.55 6.437-34.5 7.462c-27.546 5.705-38.036 8.188-38.342 9.078-.828 2.406-9.151 5.086-26.262 8.456-34.012 6.699-31.6 6.352-33.187 4.765-1.241-1.241-3.671-.955-18.32 2.158-14.279 3.035-56.516 11.592-109.389 22.163-6.875 1.375-14.525 2.936-17 3.47a984 984 0 0 1-7 1.486c-2.507.517-13.281 2.426-13.75 2.437-.137.003-.25.899-.25 1.991 0 1.98.009 1.98 3.25.004 3.948-2.407 7.388-2.678 4-.315-1.238.864-2.25 2.035-2.25 2.603s.788.346 1.75-.494c2.248-1.96 5.798-3.793 9.286-4.793 2.252-.646 2.716-.489 2.527.859-.243 1.741-8.563 6.965-8.563 5.378 0-.508 1.805-1.737 4.01-2.732 2.206-.994 3.795-2.023 3.532-2.286-.761-.761-6.83 1.925-9.263 4.1-1.86 1.662-2.475 1.773-3.792.68-1.117-.927-1.882-.994-2.642-.234-1.799 1.799.081 3.284 3.466 2.739 6.894-1.11 12.689-2.735 12.689-3.559 0-.475 1.013-1.404 2.25-2.064 2.04-1.087 2.122-1.043.878.465-1.164 1.41-1.164 1.663 0 1.658 1.501-.006 8.481-1.744 10.872-2.707.825-.333 1.89-.516 2.367-.407.904.207 6.684-1.419 10.133-2.849 1.1-.456 3.575-1.377 5.5-2.047s4.918-1.841 6.651-2.601c1.733-.761 3.844-1.383 4.691-1.383s1.815-.445 2.151-.989c.363-.587-.12-.73-1.191-.352-1.253.442-1.497.31-.802-.434.953-1.02 14.994-4.309 17.708-4.149.711.042-1.633.936-5.208 1.986s-7.85 2.563-9.5 3.363-5.582 2.462-8.738 3.694c-6.597 2.574-6.909 3.042-1.262 1.895 2.2-.447 6.452-1.313 9.448-1.925s5.794-1.67 6.216-2.351c.481-.775 2.929-1.198 6.552-1.13 3.96.073 4.838-.096 2.784-.539-2.935-.632-2.898-.672 1.693-1.858 5.8-1.497 7.916-1.574 5.807-.211-2.334 1.509-.978 1.263 15.795-2.863 17.399-4.28 34.998-8.151 37.014-8.143.72.003 1.024.569.676 1.256s.054.406.893-.626c1.021-1.254 2.36-1.716 4.044-1.394 1.385.265 2.313.151 2.064-.253-.249-.403.945-1.013 2.655-1.355 4.217-.844 5.79-.666 3.359.378l-2 .859 2 .027c2.753.037 14.488-2.662 12-2.76-1.1-.043-3.687.314-5.75.793-2.188.508-3.75.498-3.75-.024 0-.492.337-.898.75-.903.413-.004 3.45-.421 6.75-.927s9.137-1.187 12.971-1.513 7.376-.999 7.871-1.494c.496-.496 1.522-.664 2.28-.373s1.378.143 1.378-.328 1.238-.906 2.75-.965c1.512-.06 5.45-.659 8.75-1.331s8.25-1.647 11-2.165c2.75-.519 12.65-2.682 22-4.808s19.025-4.18 21.5-4.566c2.475-.385 9.45-1.766 15.5-3.069s17.75-3.765 26-5.474c38.105-7.891 60.996-13.273 61.961-14.566.571-.767 4.639-2.727 9.039-4.355s7.615-2.983 7.144-3.009c-1.942-.111-13.251 3.216-14.586 4.29-1.149.925-1.27.875-.595-.244.53-.879.469-1.171-.164-.78-.555.343-5.012 1.32-9.904 2.171s-9.683 1.795-10.645 2.098-1.75.168-1.75-.3 3.263-1.444 7.25-2.17c3.987-.725 13.1-2.641 20.25-4.256 7.15-1.614 14.525-3.181 16.39-3.481 1.864-.299 4.339-.928 5.5-1.397 3.972-1.606-1.209-.958-12.89 1.611m18.238.159c-.754 1.512-1.904 2.637-2.555 2.5s-1.183.2-1.183.75c0 1.415 2.565 1.243 3.733-.25 1.011-1.292 2.351-5.75 1.728-5.75-.194 0-.969 1.238-1.723 2.75m-8.238.488c-1.1.647-7.175 3.117-13.5 5.488-8.592 3.222-10.362 4.153-7 3.681 2.475-.347 6.01-1.252 7.856-2.012s3.765-1.129 4.265-.82c1.387.857 11.879-1.574 11.879-2.753 0-.595-.744-.729-1.75-.313-2.852 1.177-9.479 2.595-9.947 2.128-.238-.238 1.897-1.207 4.745-2.153s6.364-2.339 7.815-3.096l2.637-1.376-2.5.025c-1.375.013-3.4.553-4.5 1.201M451.5 401c1.65 1.093 3.45 1.987 4 1.987s-.35-.894-2-1.987-3.45-1.987-4-1.987.35.894 2 1.987m-249.077-.079c-.238.232-3.159.915-6.492 1.518l-6.059 1.095 6.16 3.983c6.243 4.037 6.864 4.141 14.968 2.51a271 271 0 0 1 8.346-1.53l3.846-.624-4.846-3.061c-2.665-1.684-5.104-3.466-5.419-3.959-.549-.861-9.612-.802-10.504.068m-88.843 1.949c-.307.497.112 1.459.931 2.139 1.211 1.005 1.489.944 1.489-.328 0-1.866-1.631-3.087-2.42-1.811m67.92 2.265a783 783 0 0 0-10.255 1.96l-5.254 1.049 5.224 3.925c3.73 2.803 5.805 3.742 7.255 3.281 1.116-.355 4.28-.737 7.03-.85 6.295-.258 13.5-1.548 13.5-2.418 0-.364-2.25-1.976-5-3.582s-5-3.276-5-3.71c0-.919-.759-.884-7.5.345m394.5.036c-1.925.531-7.325 2.046-12 3.366-4.675 1.319-12.775 3.33-18 4.467-13.028 2.836-16.935 4.012-11 3.311 5.79-.684 27.226-5.728 32.768-7.712 2.347-.839 4.894-1.286 5.659-.993 1.304.501 7.573-2.096 7.573-3.136 0-.595-.65-.504-5 .697M554 407l-2.5.801 2.5.084c1.375.046 3.175-.352 4-.885 1.91-1.234-.146-1.234-4 0m-26.525 2.04c-.421.682.333.806 2.191.359 3.832-.92 4.194-1.399 1.06-1.399-1.435 0-2.897.468-3.251 1.04m15.025.483c-3.104.798-4.052 1.316-2.5 1.366 1.375.044 4.525-.557 7-1.337 5.573-1.756 2.301-1.777-4.5-.029m-417.494.159c.004.45 1.354 1.585 3 2.521 3.853 2.193 3.849 1.542-.006-1.203-1.65-1.175-2.997-1.768-2.994-1.318m394.263 1.011c.973.254 2.323.237 3-.037s-.119-.481-1.769-.461-2.204.244-1.231.498M141 422.347c0 .825 10.179 7.807 10.668 7.318.26-.26-1.472-1.789-3.848-3.398-5.559-3.766-6.82-4.49-6.82-3.92m356.269 1.346c.973.254 2.323.237 3-.037s-.119-.481-1.769-.461-2.204.244-1.231.498m-10.769 1.835c-5.352 1.764-2.303 1.796 4 .042 2.868-.798 3.934-1.385 2.5-1.376-1.375.009-4.3.609-6.5 1.334m-56.5 6.228c-6.875 1.35-13.175 2.719-14 3.042s-1.95.646-2.5.717c-4.23.545-21.682 5.005-20.499 5.239 2.854.564 43.777-7.582 48.13-9.58 5.479-2.515 4.328-2.455-11.131.582m28 .244c-1.828 1.181-.249 1.181 2.5 0 1.319-.567 1.489-.878.5-.914-.825-.031-2.175.381-3 .914m-292.208 9.239c.871 1.057.939 1.684.209 1.927-.972.324 8.857 7.951 19.499 15.131a429 429 0 0 1 8.859 6.201c6.026 4.343 7.821 4.528 3.673.38-1.717-1.717-2.88-3.363-2.586-3.658.747-.746-1.446-3.227-2.818-3.188-.621.017-.327.639.651 1.382 2.137 1.621-.021 2.995-2.37 1.509-.853-.54-.951-.898-.247-.908 2.872-.038.094-3.421-7.374-8.981-7.771-5.785-10.075-7.117-8.831-5.103.317.512.099 1.226-.484 1.586-1.395.862-4.135-1.445-3.307-2.785.373-.604.159-.742-.511-.327-.635.392-1.653.405-2.262.029-.786-.486-.747-.906.135-1.452.883-.545.553-1.134-1.143-2.038-2.126-1.133-2.245-1.101-1.093.295M420.5 445c-2.695.686-2.746.765-.5.782 1.375.01 3.625-.342 5-.782 3.361-1.076-.27-1.076-4.5 0m-7.231 1.693c.973.254 2.323.237 3-.037s-.119-.481-1.769-.461-2.204.244-1.231.498m-238.76 1.292c-.606.98 7.688 7.478 8.994 7.046.376-.124 2.054 1.055 3.728 2.621l3.044 2.848-1.709-2.684C187.073 455.472 176.918 447 175.602 447c-.266 0-.758.443-1.093.985m184.991.556-5 1.349 5.307-.547c2.918-.3 6.518-.912 8-1.359l2.693-.812-3 .01c-1.65.005-5.25.617-8 1.359m-184.5-.089c0 .249 2.137 1.868 4.75 3.599l4.75 3.148-4-3.562c-3.679-3.276-5.5-4.331-5.5-3.185M393.5 450c-2.695.686-2.746.765-.5.782 1.375.01 3.625-.342 5-.782 3.361-1.076-.27-1.076-4.5 0m-17 3.486c-.55.18-5.422 1.31-10.827 2.511-5.405 1.2-9.64 2.37-9.411 2.599.454.454 22.93-4.455 23.637-5.162.488-.488-1.864-.452-3.399.052m-47 1.514c-1.261.542-1.445.859-.5.859.825 0 2.4-.386 3.5-.859 1.261-.542 1.445-.859.5-.859-.825 0-2.4.386-3.5.859m11.5 3c-3.361 1.076.27 1.076 4.5 0 2.695-.686 2.746-.765.5-.782-1.375-.01-3.625.342-5 .782m-31.5 1c-.782 1.266.542 1.266 2.5 0 1.293-.835 1.266-.971-.191-.985-.93-.008-1.969.435-2.309.985m-42.5 2c-1.828 1.181-.249 1.181 2.5 0 1.319-.567 1.489-.878.5-.914-.825-.031-2.175.381-3 .914m-6 1c-1.333.862-1.333.969 0 .969.825 0 2.175-.436 3-.969 1.333-.862 1.333-.969 0-.969-.825 0-2.175.436-3 .969m-5.75.706c-3.384.652-2.706 2.015.75 1.507 1.65-.242 3-.839 3-1.326s-.337-.826-.75-.751-1.762.331-3 .57m-14.5 3.143c-3.713.877-6.75 1.975-6.75 2.44s.787.609 1.75.319c.963-.289 5.012-1.255 9-2.147s7.25-1.81 7.25-2.041c0-.752-4.363-.198-11.25 1.429M280 465c0 1.253 1.061 1.253 3 0 1.213-.784 1.069-.972-.75-.985-1.238-.008-2.25.435-2.25.985m-6 .658a84 84 0 0 0-3 1.079c-.825.318-2.062.488-2.75.377-.687-.111-1.25.316-1.25.949s-.67.894-1.488.58c-.836-.321-1.384-.063-1.25.587.131.638-1.075 1.409-2.68 1.714-1.604.306-3.105 1.122-3.335 1.814-.46 1.382.669 1.046 10.753-3.201l8-3.369c2.096-.883 2.177-1.051.5-1.041-1.1.006-2.675.236-3.5.511M209 470c1.375 1.076 2.95 1.956 3.5 1.956s-.125-.88-1.5-1.956-2.95-1.956-3.5-1.956.125.88 1.5 1.956m44.222.661c-1.803.889-3.082 1.812-2.843 2.051.492.492 6.621-2.505 6.621-3.238 0-.658-.093-.629-3.778 1.187m-6.972 1.045c-1.238.238-2.25.852-2.25 1.364 0 1.346 1.335 1.144 3.559-.538 1.067-.808 1.716-1.421 1.441-1.364s-1.512.299-2.75.538m5.884 1.926c-1.852.808-3.138 1.697-2.858 1.977.589.589 7.724-2.235 7.724-3.058 0-.807-1.098-.563-4.866 1.081"/>
</svg>
